<svg width="32" height="32" viewBox="0 0 32 32" fill="none" xmlns="http://www.w3.org/2000/svg">
<path d="M17.8925 6.84578C17.8925 7.90655 17.6395 8.84946 17.1334 9.67451C16.6273 10.4701 15.9461 11.1625 15.0896 11.7519C14.2721 12.3117 13.3183 12.739 12.2283 13.0336C11.1772 13.3283 10.0872 13.4756 8.95823 13.4756C7.82928 13.4756 6.71979 13.3283 5.62976 13.0336C4.57867 12.739 3.6249 12.3117 2.76845 11.7519C1.95093 11.1625 1.28913 10.4701 0.78305 9.67451C0.276967 8.84946 0.0239258 7.90655 0.0239258 6.84578C0.0239258 5.785 0.276967 4.85683 0.78305 4.06125C1.28913 3.2362 1.95093 2.54375 2.76845 1.9839C3.6249 1.39458 4.57867 0.95259 5.62976 0.657931C6.71979 0.363272 7.82928 0.215942 8.95823 0.215942C10.0872 0.215942 11.1772 0.363272 12.2283 0.657931C13.3183 0.95259 14.2721 1.39458 15.0896 1.9839C15.9461 2.54375 16.6273 3.2362 17.1334 4.06125C17.6395 4.85683 17.8925 5.785 17.8925 6.84578ZM8.95823 9.7629C9.93147 9.7629 10.7879 9.51244 11.5276 9.01152C12.2672 8.5106 12.6371 7.78869 12.6371 6.84578C12.6371 5.90287 12.2672 5.18095 11.5276 4.68003C10.7879 4.17911 9.93147 3.92865 8.95823 3.92865C7.985 3.92865 7.12855 4.17911 6.38889 4.68003C5.64923 5.18095 5.2794 5.90287 5.2794 6.84578C5.2794 7.78869 5.64923 8.5106 6.38889 9.01152C7.12855 9.51244 7.985 9.7629 8.95823 9.7629ZM32.0239 25.5861C32.0239 26.6469 31.7709 27.5898 31.2648 28.4148C30.7587 29.2104 30.0775 29.9029 29.221 30.4922C28.4035 31.052 27.4497 31.4793 26.3597 31.774C25.3086 32.0686 24.2186 32.2159 23.0896 32.2159C21.9607 32.2159 20.8512 32.0686 19.7612 31.774C18.7101 31.4793 17.7563 31.052 16.8998 30.4922C16.0823 29.9029 15.4205 29.2104 14.9144 28.4148C14.4084 27.5898 14.1553 26.6469 14.1553 25.5861C14.1553 24.5253 14.4084 23.5972 14.9144 22.8016C15.4205 21.9765 16.0823 21.2841 16.8998 20.7242C17.7563 20.1349 18.7101 19.6929 19.7612 19.3983C20.8512 19.1036 21.9607 18.9563 23.0896 18.9563C24.2186 18.9563 25.3086 19.1036 26.3597 19.3983C27.4497 19.6929 28.4035 20.1349 29.221 20.7242C30.0775 21.2841 30.7587 21.9765 31.2648 22.8016C31.7709 23.5972 32.0239 24.5253 32.0239 25.5861ZM23.0896 28.5032C24.0629 28.5032 24.9193 28.2528 25.659 27.7519C26.3986 27.2509 26.7685 26.529 26.7685 25.5861C26.7685 24.6432 26.3986 23.9213 25.659 23.4204C24.9193 22.9194 24.0629 22.669 23.0896 22.669C22.1164 22.669 21.2599 22.9194 20.5203 23.4204C19.7806 23.9213 19.4108 24.6432 19.4108 25.5861C19.4108 26.529 19.7806 27.2509 20.5203 27.7519C21.2599 28.2528 22.1164 28.5032 23.0896 28.5032ZM28.5787 9.14412L30.9728 12.5916L3.41079 23.2878L1.01663 19.8403L28.5787 9.14412Z" fill="#3D6666"/>
</svg>
