<svg width="700" height="500" viewBox="0 0 700 500" fill="none" xmlns="http://www.w3.org/2000/svg">
<rect width="700" height="500" fill="#C5E4E7"/>
<path d="M289.2 235.12C290.773 235.12 292.187 234.92 293.44 234.52C294.693 234.12 295.76 233.547 296.64 232.8C297.511 232.066 298.202 231.142 298.66 230.1C299.127 229.047 299.36 227.867 299.36 226.56V226.08C299.36 223.627 298.587 221.773 297.04 220.52C295.493 219.267 293.253 218.373 290.32 217.84C289.34 217.673 288.372 217.446 287.42 217.16C286.66 216.92 286.047 216.647 285.58 216.34C285.113 216.033 284.787 215.687 284.6 215.3C284.409 214.894 284.313 214.449 284.32 214C284.32 213.067 284.707 212.327 285.48 211.78C286.253 211.233 287.307 210.96 288.64 210.96C290.213 210.96 291.433 211.373 292.3 212.2C293.167 213.027 293.6 214 293.6 215.12V216.08H298.88V214.64C298.884 213.513 298.659 212.397 298.22 211.36C297.773 210.31 297.104 209.368 296.26 208.6C295.393 207.8 294.32 207.167 293.04 206.7C291.76 206.233 290.293 206 288.64 206C287.173 206 285.847 206.2 284.66 206.6C283.473 207 282.46 207.56 281.62 208.28C280.78 209 280.127 209.847 279.66 210.82C279.193 211.793 278.96 212.853 278.96 214V214.24C278.96 215.627 279.2 216.8 279.68 217.76C280.152 218.71 280.844 219.533 281.7 220.16C282.567 220.8 283.587 221.313 284.76 221.7C285.933 222.087 287.227 222.4 288.64 222.64C289.707 222.827 290.587 223.053 291.28 223.32C291.973 223.587 292.52 223.887 292.92 224.22C293.32 224.553 293.6 224.927 293.76 225.34C293.92 225.753 294 226.187 294 226.64C294 227.6 293.613 228.427 292.84 229.12C292.067 229.813 290.88 230.16 289.28 230.16C287.227 230.16 285.713 229.66 284.74 228.66C283.767 227.66 283.28 226.32 283.28 224.64V223.68H278V224.88C278 226.347 278.24 227.7 278.72 228.94C279.187 230.159 279.909 231.264 280.84 232.18C281.773 233.1 282.94 233.82 284.34 234.34C285.74 234.86 287.36 235.12 289.2 235.12ZM325.867 234.56V224H331.547C332.987 224 334.24 223.76 335.307 223.28C336.317 222.84 337.223 222.193 337.967 221.38C338.67 220.6 339.213 219.689 339.567 218.7C339.927 217.7 340.107 216.68 340.107 215.64V214.68C340.107 213.667 339.927 212.673 339.567 211.7C339.212 210.735 338.668 209.851 337.967 209.1C337.216 208.31 336.311 207.683 335.307 207.26C334.24 206.793 332.987 206.56 331.547 206.56H320.587V234.56H325.867ZM331.027 218.96H325.867V211.6H331.027C332.2 211.6 333.127 211.92 333.807 212.56C334.487 213.2 334.827 214.027 334.827 215.04V215.52C334.827 216.533 334.487 217.36 333.807 218C333.127 218.64 332.2 218.96 331.027 218.96ZM380.133 234.56V229.52H367.413V206.56H362.133V234.56H380.133ZM421.6 234.56V229.52H414.88V211.6H421.6V206.56H402.88V211.6H409.6V229.52H402.88V234.56H421.6ZM291.44 294.56V271.6H298.88V266.56H278.72V271.6H286.16V294.56H291.44ZM332.587 294.56V271.6H340.027V266.56H319.867V271.6H327.307V294.56H332.587ZM380.293 294.56V289.52H367.413V283.04H379.333V278H367.413V271.6H379.813V266.56H362.133V294.56H380.293ZM408.2 294.56V284H414.28C415.053 284 415.607 284.2 415.94 284.6C416.273 285 416.44 285.52 416.44 286.16V294.56H421.72V284.88C421.72 283.947 421.447 283.173 420.9 282.56C420.353 281.947 419.613 281.587 418.68 281.48V280.76C419.96 280.227 420.907 279.46 421.52 278.46C422.124 277.495 422.442 276.379 422.44 275.24V274.28C422.44 273.213 422.247 272.213 421.86 271.28C421.477 270.352 420.905 269.514 420.18 268.82C419.447 268.113 418.533 267.56 417.44 267.16C416.347 266.76 415.08 266.56 413.64 266.56H402.92V294.56H408.2ZM413.24 278.96H408.2V271.6H413.24C414.52 271.6 415.493 271.94 416.16 272.62C416.827 273.3 417.16 274.107 417.16 275.04V275.52C417.16 276.613 416.827 277.46 416.16 278.06C415.493 278.66 414.52 278.96 413.24 278.96Z" fill="#3D6666"/>
</svg>
