<svg width="700" height="500" viewBox="0 0 700 500" fill="none" xmlns="http://www.w3.org/2000/svg">
<path d="M0 0H700V500H0V0Z" fill="white"/>
<path fill-rule="evenodd" clip-rule="evenodd" d="M330.464 500H0V359H35.0097C46.4898 359 57.4998 363.561 65.6179 371.68L80.8785 386.942C88.9966 395.062 100.007 399.623 111.487 399.623H212.974C224.454 399.623 235.465 404.184 243.583 412.303L328.141 496.872C329.072 497.804 329.852 498.859 330.464 500Z" fill="#C5E4E7"/>
<path fill-rule="evenodd" clip-rule="evenodd" d="M473.288 116.238L415.158 58.1018V58.1013C413.523 56.4659 412.225 54.5243 411.34 52.3874C410.455 50.2505 410 47.9602 410 45.6473C410 35.9205 417.884 28.0356 427.609 28.0356C429.921 28.0356 432.211 27.5801 434.347 26.6949C436.484 25.8097 438.425 24.5123 440.06 22.8767C446.294 16.6408 446.876 6.89138 441.804 0H700V224H665.427C653.947 223.999 642.937 219.438 634.82 211.319L565.107 141.599C556.989 133.479 545.979 128.918 534.499 128.918H503.897C492.416 128.918 481.406 124.357 473.288 116.238Z" fill="#3D6666"/>
<path d="M289.2 242.12C290.773 242.12 292.187 241.92 293.44 241.52C294.693 241.12 295.76 240.547 296.64 239.8C297.511 239.066 298.202 238.142 298.66 237.1C299.127 236.047 299.36 234.867 299.36 233.56V233.08C299.36 230.627 298.587 228.773 297.04 227.52C295.493 226.267 293.253 225.373 290.32 224.84C289.34 224.673 288.372 224.446 287.42 224.16C286.66 223.92 286.047 223.647 285.58 223.34C285.113 223.033 284.787 222.687 284.6 222.3C284.409 221.894 284.313 221.449 284.32 221C284.32 220.067 284.707 219.327 285.48 218.78C286.253 218.233 287.307 217.96 288.64 217.96C290.213 217.96 291.433 218.373 292.3 219.2C293.167 220.027 293.6 221 293.6 222.12V223.08H298.88V221.64C298.884 220.513 298.659 219.397 298.22 218.36C297.773 217.31 297.104 216.368 296.26 215.6C295.393 214.8 294.32 214.167 293.04 213.7C291.76 213.233 290.293 213 288.64 213C287.173 213 285.847 213.2 284.66 213.6C283.473 214 282.46 214.56 281.62 215.28C280.78 216 280.127 216.847 279.66 217.82C279.193 218.793 278.96 219.853 278.96 221V221.24C278.96 222.627 279.2 223.8 279.68 224.76C280.152 225.71 280.844 226.533 281.7 227.16C282.567 227.8 283.587 228.313 284.76 228.7C285.933 229.087 287.227 229.4 288.64 229.64C289.707 229.827 290.587 230.053 291.28 230.32C291.973 230.587 292.52 230.887 292.92 231.22C293.32 231.553 293.6 231.927 293.76 232.34C293.92 232.753 294 233.187 294 233.64C294 234.6 293.613 235.427 292.84 236.12C292.067 236.813 290.88 237.16 289.28 237.16C287.227 237.16 285.713 236.66 284.74 235.66C283.767 234.66 283.28 233.32 283.28 231.64V230.68H278V231.88C278 233.347 278.24 234.7 278.72 235.94C279.187 237.159 279.909 238.264 280.84 239.18C281.773 240.1 282.94 240.82 284.34 241.34C285.74 241.86 287.36 242.12 289.2 242.12ZM325.867 241.56V231H331.547C332.987 231 334.24 230.76 335.307 230.28C336.317 229.84 337.223 229.193 337.967 228.38C338.67 227.6 339.213 226.689 339.567 225.7C339.927 224.7 340.107 223.68 340.107 222.64V221.68C340.107 220.667 339.927 219.673 339.567 218.7C339.212 217.735 338.668 216.851 337.967 216.1C337.216 215.31 336.311 214.683 335.307 214.26C334.24 213.793 332.987 213.56 331.547 213.56H320.587V241.56H325.867ZM331.027 225.96H325.867V218.6H331.027C332.2 218.6 333.127 218.92 333.807 219.56C334.487 220.2 334.827 221.027 334.827 222.04V222.52C334.827 223.533 334.487 224.36 333.807 225C333.127 225.64 332.2 225.96 331.027 225.96ZM380.133 241.56V236.52H367.413V213.56H362.133V241.56H380.133ZM421.6 241.56V236.52H414.88V218.6H421.6V213.56H402.88V218.6H409.6V236.52H402.88V241.56H421.6ZM291.44 301.56V278.6H298.88V273.56H278.72V278.6H286.16V301.56H291.44ZM332.587 301.56V278.6H340.027V273.56H319.867V278.6H327.307V301.56H332.587ZM380.293 301.56V296.52H367.413V290.04H379.333V285H367.413V278.6H379.813V273.56H362.133V301.56H380.293ZM408.2 301.56V291H414.28C415.053 291 415.607 291.2 415.94 291.6C416.273 292 416.44 292.52 416.44 293.16V301.56H421.72V291.88C421.72 290.947 421.447 290.173 420.9 289.56C420.353 288.947 419.613 288.587 418.68 288.48V287.76C419.96 287.227 420.907 286.46 421.52 285.46C422.124 284.495 422.442 283.379 422.44 282.24V281.28C422.44 280.213 422.247 279.213 421.86 278.28C421.477 277.352 420.905 276.514 420.18 275.82C419.447 275.113 418.533 274.56 417.44 274.16C416.347 273.76 415.08 273.56 413.64 273.56H402.92V301.56H408.2ZM413.24 285.96H408.2V278.6H413.24C414.52 278.6 415.493 278.94 416.16 279.62C416.827 280.3 417.16 281.107 417.16 282.04V282.52C417.16 283.613 416.827 284.46 416.16 285.06C415.493 285.66 414.52 285.96 413.24 285.96Z" fill="#3D6666"/>
</svg>
